# xmcd
#
# Track frame offsets: 
#        150
#        15704
#        29306
#        46124
#        61724
#        76548
#        96071
#        115077
#        130251
#        146034
#        161649
#        175673
#        192800
#        212515
#        230907
#        253797
#        273044
#
# Disc length: 3880 seconds
#
# Revision: 0
# Processed by: cddbd v1.5.2PL0 Copyright (c) Steve Scherf et al.
# Submitted via: ExactAudioCopy v0.95b3
#
DISCID=d70f2611
DTITLE=The Doobie Brothers  - The Very Best Of The Doobie Brothers - D
DTITLE=isc 2
DYEAR=1900
DGENRE=
TTITLE0=Little Darling (I Need You)
TTITLE1=Echoes Of Love
TTITLE2=What A Fool Believes
TTITLE3=Minute By Minute
TTITLE4=Dependin' On You (Single Version)
TTITLE5=Real Love
TTITLE6=One Step Closer
TTITLE7=Wynken, Blynken And Nod
TTITLE8=Keep This Train A-Rollin'
TTITLE9=Here To Love You (Single Version)
TTITLE10=You Belong To Me
TTITLE11=The Doctor
TTITLE12=South Of The Border
TTITLE13=Need A Little Taste Of Love
TTITLE14=Dangerous
TTITLE15=Rollin' On
TTITLE16=Ordinary Man
EXTD=
EXTT0=
EXTT1=
EXTT2=
EXTT3=
EXTT4=
EXTT5=
EXTT6=
EXTT7=
EXTT8=
EXTT9=
EXTT10=
EXTT11=
EXTT12=
EXTT13=
EXTT14=
EXTT15=
EXTT16=
PLAYORDER=
